<?xml version="1.0" encoding="UTF-8" standalone="no"?>
<svg width="32px" height="32px" viewBox="0 0 32 32" version="1.1" xmlns="http://www.w3.org/2000/svg" xmlns:xlink="http://www.w3.org/1999/xlink">
    <!-- Generator: Sketch 47.1 (45422) - http://www.bohemiancoding.com/sketch -->
    <title>Loai nha dat</title>
    <desc>Created with Sketch.</desc>
    <defs></defs>
    <g id="Page-1" stroke="none" stroke-width="1" fill="none" fill-rule="evenodd">
        <g id="Loai-nha-dat" fill="#9B9B9B">
            <g id="Page-1" transform="translate(2.000000, 1.000000)">
                <path d="M4.92418569,0 L4.92418569,1.70886076 L4.92418569,2.43037975 L3.95379072,2.43037975 L2.17324949,2.43037975 L2.17324949,4.13924051 L2.17324949,24.1509494 L1.78054123,24.1509494 L0,24.1509494 L0,25.8598101 L0,28.2911392 L0,30 L1.78054123,30 L26.2194588,30 L28,30 L28,24.1509494 L26.2194588,24.1509494 L25.8267505,24.1509494 L25.8267505,4.13924051 L25.8267505,2.43037975 L24.0462093,2.43037975 L23.0758143,2.43037975 L23.0758143,1.70886076 L23.0758143,0 L4.92418569,0 Z M1.78054123,25.8598101 L3.95379072,25.8598101 L3.95379072,4.13924051 L6.70472691,4.13924051 L6.70472691,1.70886076 L21.2952731,1.70886076 L21.2952731,4.13924051 L24.0462093,4.13924051 L24.0462093,25.8598101 L26.2194588,25.8598101 L26.2194588,28.2911392 L1.78054123,28.2911392 L1.78054123,25.8598101 Z" id="Fill-1"></path>
                <g id="Group" transform="translate(7.000000, 5.000000)">
                    <polygon id="Fill-2" points="0 17.761 3 17.761 3 15.565 0 15.565"></polygon>
                    <polygon id="Fill-3" points="0 12.82 3 12.82 3 10.624 0 10.624"></polygon>
                    <polygon id="Fill-4" points="0 7.878 3 7.878 3 5.682 0 5.682"></polygon>
                    <polygon id="Fill-5" points="0 2.937 3 2.937 3 0.741 0 0.741"></polygon>
                    <polygon id="Fill-6" points="5 21.604 9 21.604 9 15.565 5 15.565"></polygon>
                    <polygon id="Fill-7" points="5 12.82 9 12.82 9 10.624 5 10.624"></polygon>
                    <polygon id="Fill-8" points="5 7.878 9 7.878 9 5.682 5 5.682"></polygon>
                    <polygon id="Fill-9" points="5 2.937 9 2.937 9 0.741 5 0.741"></polygon>
                    <polygon id="Fill-10" points="11 17.761 14 17.761 14 15.565 11 15.565"></polygon>
                    <polygon id="Fill-11" points="11 12.82 14 12.82 14 10.624 11 10.624"></polygon>
                    <polygon id="Fill-12" points="11 7.878 14 7.878 14 5.682 11 5.682"></polygon>
                    <polygon id="Fill-13" points="11 2.937 14 2.937 14 0.741 11 0.741"></polygon>
                </g>
            </g>
        </g>
    </g>
</svg>